<svg width="20" height="20" viewBox="0 0 20 20" fill="none" xmlns="http://www.w3.org/2000/svg">
<g id="ph:caret-down-bold">
<path id="Vector" d="M16.9133 8.1633L10.6633 14.4133C10.5762 14.5007 10.4727 14.57 10.3588 14.6174C10.2448 14.6647 10.1226 14.689 9.99925 14.689C9.87586 14.689 9.75368 14.6647 9.63973 14.6174C9.52577 14.57 9.42228 14.5007 9.33518 14.4133L3.08518 8.1633C2.90906 7.98718 2.81012 7.74831 2.81012 7.49923C2.81012 7.25016 2.90906 7.01129 3.08518 6.83517C3.2613 6.65905 3.50017 6.56011 3.74925 6.56011C3.99832 6.56011 4.23719 6.65905 4.41331 6.83517L10 12.4219L15.5867 6.83439C15.7629 6.65827 16.0017 6.55933 16.2508 6.55933C16.4999 6.55933 16.7387 6.65827 16.9149 6.83439C17.091 7.01051 17.1899 7.24938 17.1899 7.49845C17.1899 7.74752 17.091 7.98639 16.9149 8.16252L16.9133 8.1633Z" fill="#141414" fill-opacity="0.8"/>
</g>
</svg>
